<svg xmlns="http://www.w3.org/2000/svg" viewBox="0 0 129 129"><defs><style>.cls-1,.cls-2{fill:#2800a0;}.cls-2{stroke:#fff;stroke-miterlimit:10;stroke-width:3px;}.cls-3{fill:#fff;}</style></defs><title>Asset 7</title><g id="Layer_2" data-name="Layer 2"><g id="Layer_2-2" data-name="Layer 2"><circle class="cls-1" cx="64.5" cy="64.5" r="64.5"/><path class="cls-2" d="M84,101.88H35.86c-7.8,0-4.19-6.38-4.19-14.19V39.52c0-7.81-3.61-14.2,4.19-14.2H84a14.24,14.24,0,0,1,14.2,14.2V87.69A14.23,14.23,0,0,1,84,101.88Z"/><path class="cls-3" d="M75.76,63.66l8.95,9a2.2,2.2,0,0,0,3.75-1.56V21.31a2.19,2.19,0,0,0-2.19-2.19H61.6a2.2,2.2,0,0,0-2.2,2.19V71.62a2.19,2.19,0,0,0,3.75,1.55l9.51-9.51A2.18,2.18,0,0,1,75.76,63.66Z"/></g></g></svg>