<svg xmlns="http://www.w3.org/2000/svg" viewBox="0 0 129 129"><defs><style>.cls-1,.cls-2{fill:#ff3268;}.cls-2{stroke:#fff;stroke-miterlimit:10;stroke-width:3px;}.cls-3{fill:#fff;}</style></defs><title>Asset 6</title><g id="Layer_2" data-name="Layer 2"><g id="Layer_2-2" data-name="Layer 2"><circle class="cls-1" cx="64.5" cy="64.5" r="64.5"/><path class="cls-2" d="M96.22,90.49,72.6,97.24a8.12,8.12,0,0,1-8.1-8.1V53.36a8.12,8.12,0,0,1,8.1-8.1L103,38.51c4.46,0,1.35,10.4,1.35,14.85v29A8.12,8.12,0,0,1,96.22,90.49Z"/><path class="cls-2" d="M32.77,90.49,56.4,97.24a8.13,8.13,0,0,0,8.1-8.1V53.36a8.12,8.12,0,0,0-8.1-8.1L26,38.51c-4.46,0-1.35,10.4-1.35,14.85v29A8.13,8.13,0,0,0,32.77,90.49Z"/><path class="cls-2" d="M96.22,87.11,72.6,93.86a8.12,8.12,0,0,1-8.1-8.1V50a8.12,8.12,0,0,1,8.1-8.1L103,35.14c4.46,0,1.35,10.39,1.35,14.85V79A8.12,8.12,0,0,1,96.22,87.11Z"/><path class="cls-2" d="M96.22,83.74,72.6,90.49a8.12,8.12,0,0,1-8.1-8.1V46.61a8.12,8.12,0,0,1,8.1-8.1L103,31.76c4.46,0,1.35,10.4,1.35,14.85v29A8.12,8.12,0,0,1,96.22,83.74Z"/><path class="cls-2" d="M32.77,87.11,56.4,93.86a8.12,8.12,0,0,0,8.1-8.1V50a8.12,8.12,0,0,0-8.1-8.1L26,35.14c-4.46,0-1.35,10.39-1.35,14.85V79A8.12,8.12,0,0,0,32.77,87.11Z"/><path class="cls-2" d="M32.77,83.74,56.4,90.49a8.13,8.13,0,0,0,8.1-8.1V46.61a8.12,8.12,0,0,0-8.1-8.1L26,31.76c-4.46,0-1.35,10.4-1.35,14.85v29A8.13,8.13,0,0,0,32.77,83.74Z"/><path class="cls-1" d="M64.44,79.63A8.26,8.26,0,0,1,58,76.38L49.7,66.7a12.38,12.38,0,0,1,0-15,8.05,8.05,0,0,1,12.91,0L64.44,54l1.77-2.18a8.51,8.51,0,0,1,6.58-3.29,8.16,8.16,0,0,1,6.41,3.19,12.36,12.36,0,0,1,0,14.92l-8.34,9.74A8.21,8.21,0,0,1,64.44,79.63Z"/><path class="cls-3" d="M56.13,50a6.81,6.81,0,0,1,5.28,2.69l2,2.42a1.38,1.38,0,0,0,2.13,0l1.87-2.32a7,7,0,0,1,5.42-2.73A6.75,6.75,0,0,1,78,52.69a10.85,10.85,0,0,1,0,13l-8.31,9.71a6.54,6.54,0,0,1-10.57,0h0l-8.31-9.71a10.83,10.83,0,0,1,0-13A6.82,6.82,0,0,1,56.13,50m0-3a9.84,9.84,0,0,0-7.62,3.8,13.75,13.75,0,0,0,0,16.82l0,0,0,0,8.28,9.68a9.54,9.54,0,0,0,15.19,0l8.28-9.68,0,0,0,0a13.75,13.75,0,0,0,0-16.81,9.79,9.79,0,0,0-7.58-3.75A10,10,0,0,0,65,50.9l-.6.75-.7-.85A9.84,9.84,0,0,0,56.13,47Z"/></g></g></svg>