<svg xmlns="http://www.w3.org/2000/svg" viewBox="0 0 92 92"><defs><style>.cls-1{fill:#2800a0;}.cls-2{fill:#fff;}</style></defs><title>Asset 2</title><g id="Layer_2" data-name="Layer 2"><g id="Layer_2-2" data-name="Layer 2"><circle class="cls-1" cx="46" cy="46" r="46"/><path class="cls-2" d="M48.2,66.63,58.94,77.37a2.63,2.63,0,0,0,4.5-1.86V15.81a2.64,2.64,0,0,0-2.64-2.63H31.2a2.64,2.64,0,0,0-2.64,2.63V76.18a2.64,2.64,0,0,0,4.5,1.87L44.47,66.63A2.64,2.64,0,0,1,48.2,66.63Z"/><rect class="cls-1" x="37.56" y="43.6" width="24.8" height="4.8" transform="translate(-17.89 48.8) rotate(-45)"/><rect class="cls-1" x="30.93" y="46.71" width="16" height="4.8" transform="translate(46.13 -13.14) rotate(45)"/></g></g></svg>