<svg xmlns="http://www.w3.org/2000/svg" viewBox="0 0 92 92"><defs><style>.cls-1{fill:#2800a0;}.cls-2{fill:none;stroke:#2800a0;stroke-miterlimit:10;stroke-width:3px;}</style></defs><title>Asset 4</title><g id="Layer_2" data-name="Layer 2"><g id="Layer_2-2" data-name="Layer 2"><path class="cls-1" d="M46,3A43,43,0,1,1,3,46,43,43,0,0,1,46,3m0-3A46,46,0,1,0,92,46,46,46,0,0,0,46,0Z"/><path class="cls-2" d="M48,67.1,58.77,77.84A2.63,2.63,0,0,0,63.27,76V16.28a2.63,2.63,0,0,0-2.63-2.63H31a2.64,2.64,0,0,0-2.64,2.63V76.65a2.64,2.64,0,0,0,4.5,1.87L44.31,67.1A2.64,2.64,0,0,1,48,67.1Z"/></g></g></svg>