<svg xmlns="http://www.w3.org/2000/svg" viewBox="0 0 92 92"><defs><style>.cls-1{fill:#ff3268;}.cls-2{fill:#fff;}</style></defs><title>heart</title><g id="Layer_2" data-name="Layer 2"><g id="Layer_2-2" data-name="Layer 2"><path class="cls-1" d="M46,3A43,43,0,1,1,3,46,43,43,0,0,1,46,3m0-3A46,46,0,1,0,92,46,46,46,0,0,0,46,0Z"/><path class="cls-2" d="M45.92,76.5a14.31,14.31,0,0,1-11.13-5.62L19.16,52.61c-5.94-7.33-5.94-19.19,0-26.49A14.28,14.28,0,0,1,30.27,20.5,14.31,14.31,0,0,1,41.4,26.12l3.69,4.56a1.09,1.09,0,0,0,1.67,0l3.53-4.36a14.75,14.75,0,0,1,11.37-5.7,14.11,14.11,0,0,1,11.06,5.51c5.91,7.3,5.91,19.16,0,26.45L57,70.91A14.27,14.27,0,0,1,45.92,76.5Z"/><path class="cls-1" d="M30.27,22a12.83,12.83,0,0,1,10,5.07l3.7,4.55a2.57,2.57,0,0,0,4,0l3.54-4.36a13.17,13.17,0,0,1,10.2-5.14,12.69,12.69,0,0,1,9.9,5c5.47,6.75,5.47,17.8,0,24.55L55.89,69.93a12.84,12.84,0,0,1-10,5.07,12.83,12.83,0,0,1-10-5.07h0L20.3,51.63c-5.48-6.75-5.48-17.81,0-24.56a12.84,12.84,0,0,1,10-5.07m0-3A15.73,15.73,0,0,0,18,25.18C11.63,33,11.63,45.71,18,53.52l0,0,0,0L33.66,71.86a15.31,15.31,0,0,0,24.53,0L73.83,53.58l0,0,0,0c6.33-7.81,6.34-20.52,0-28.33a15.59,15.59,0,0,0-12.23-6.07,16.25,16.25,0,0,0-12.53,6.25l-3.21,3.95-3.36-4.14A15.73,15.73,0,0,0,30.27,19Z"/></g></g></svg>