<svg xmlns="http://www.w3.org/2000/svg" viewBox="0 0 92 92"><defs><style>.cls-1{fill:#ff3268;}.cls-2{fill:#fff;}</style></defs><title>Asset 3</title><g id="Layer_2" data-name="Layer 2"><g id="Layer_2-2" data-name="Layer 2"><circle class="cls-1" cx="46" cy="46" r="46"/><path class="cls-2" d="M71.56,27.08c-5.46-6.74-14.64-6.55-20.1.18l-3.54,4.36a2.57,2.57,0,0,1-4,0l-3.7-4.55c-5.48-6.76-14.45-6.76-19.93,0h0c-5.48,6.75-5.48,17.81,0,24.56L36,69.93h0c5.48,6.76,14.45,6.76,19.93,0l15.66-18.3C77,44.88,77,33.83,71.56,27.08Z"/><rect class="cls-1" x="37.34" y="43.74" width="24.8" height="4.8" transform="translate(-18.06 48.68) rotate(-45)"/><rect class="cls-1" x="36.31" y="41.25" width="4.8" height="16" transform="translate(-23.49 41.8) rotate(-45)"/></g></g></svg>