<svg xmlns="http://www.w3.org/2000/svg" viewBox="0 0 383.88 108.38"><defs><style>.cls-1,.cls-2{fill:#fff;}.cls-1{stroke:#fff;stroke-miterlimit:10;}</style></defs><title>logo</title><g id="Layer_2" data-name="Layer 2"><g id="Layer_2-2" data-name="Layer 2"><path class="cls-1" d="M78.15,61.77c-4.49-1.93-8.24,0-9.34,4.71-1.24,5.33-5.18,8.33-10.7,8.16-5.21-.16-8.87-3.51-9.76-8.9-.55-3.3-.12-6.62-.27-9.38s.13-5.09,0-7.35.21-3.31,3-3.12c4.42.32,8.89.13,13.33.07,3.4,0,4.75-1.5,4.81-4.93.06-3.65-1.25-5.12-4.69-5.38-2.6-.21-6,1.17-7.6-.6s-.36-5.06-.44-7.69c-.11-3.76-1.39-5-5.22-5.07-4.19,0-5.54,1.11-5.58,4.92,0,4.54-.08,9.08,0,13.62,0,1.65-.44,2-2.06,2-4.91-.13-9.84-.12-14.75,0-3.07,0-4.43,1.71-4.43,5s1.35,5,4.32,5.17A54.12,54.12,0,0,0,35,53c1.71-.11,2.35.42,2.28,2.21-.14,3.11-.1,6.24,0,9.36.26,10.19,6.43,17.93,16,20.11,13.32,3,24.7-4.48,27-17.85C80.52,64.7,80.48,62.77,78.15,61.77Z"/><path class="cls-1" d="M54.19.5a53.69,53.69,0,1,0,53.69,53.69A53.69,53.69,0,0,0,54.19.5ZM54,104.23C26.08,104.18,4.1,82,4.17,53.91A49.69,49.69,0,0,1,54.3,4.15,50,50,0,1,1,54,104.23Z"/><path class="cls-2" d="M131.94,12.66V21H140V27.2h-8.13V39.85c0,2.79,1.54,4.16,3.8,4.16a8.32,8.32,0,0,0,3.5-.89l2,6.17a16.22,16.22,0,0,1-6,1.25c-6.36.23-10.51-3.39-10.51-10.69V27.2h-5.47V21h5.47V13.43Z"/><path class="cls-2" d="M152.13,20.91l.53,3.38c2.26-3.62,5.29-4.15,8.26-4.15a11.1,11.1,0,0,1,7.54,2.79l-3.27,6.29a7.21,7.21,0,0,0-5.22-1.9c-3.8,0-7.31,2-7.31,7.42V50.18h-7.24V20.91Z"/><path class="cls-2" d="M194.4,20.91h6.95V50.18h-6.83l-.35-4.27c-1.67,3.44-6.24,5.1-9.5,5.16-8.67.06-15.08-5.28-15.08-15.55,0-10.1,6.7-15.38,15.25-15.32,3.92,0,7.66,1.84,9.33,4.75ZM176.83,35.52c0,5.58,3.86,8.9,8.67,8.9,11.4,0,11.4-17.75,0-17.75C180.69,26.67,176.83,29.93,176.83,35.52Z"/><path class="cls-2" d="M229,50.18V34.86C229,30.41,226.59,27,222,27c-4.46,0-7.48,3.75-7.48,8.2v15h-7.19V20.85h6.47l.48,4c3-2.91,5.94-4.4,9.62-4.4,6.88,0,12.41,5.17,12.41,14.37V50.18Z"/><path class="cls-2" d="M261.62,28.69a9.86,9.86,0,0,0-7.24-2.61c-3.45,0-5.35,1.06-5.35,2.9s1.73,3,5.47,3.21c5.52.36,12.52,1.6,12.52,9.38,0,5.17-4.21,9.62-12.58,9.62-4.63,0-9.27-.77-13.54-5.22l3.56-5.17c2.08,2.32,6.83,4,10.1,4.1,2.73.06,5.28-1.37,5.28-3.51s-1.66-2.85-5.82-3.08c-5.52-.42-12.11-2.44-12.11-9.09s7-9.14,12.35-9.14c4.57,0,8,.89,11.4,3.86Z"/><path class="cls-2" d="M294.87,20.91h6.95V50.18H295l-.35-4.27c-1.67,3.44-6.24,5.1-9.5,5.16-8.67.06-15.08-5.28-15.08-15.55,0-10.1,6.7-15.38,15.25-15.32,3.92,0,7.66,1.84,9.33,4.75ZM277.3,35.52c0,5.58,3.86,8.9,8.67,8.9,11.4,0,11.4-17.75,0-17.75C281.16,26.67,277.3,29.93,277.3,35.52Z"/><path class="cls-2" d="M336.44,20.85,324,50.3h-7.84L303.6,20.85h7.9l4,9.68,4.51,12.35,4.45-12.23,4-9.8Z"/><path class="cls-2" d="M347.84,12.66c0,5.64-8.55,5.64-8.55,0S347.84,7,347.84,12.66Zm-7.9,8.13V50.18h7.25V20.79Z"/><path class="cls-2" d="M376.93,20.91h6.95V50.18h-6.83l-.35-4.27c-1.67,3.44-6.24,5.1-9.5,5.16-8.67.06-15.08-5.28-15.08-15.55,0-10.1,6.71-15.38,15.26-15.32,3.91,0,7.65,1.84,9.32,4.75ZM359.36,35.52c0,5.58,3.86,8.9,8.67,8.9,11.4,0,11.4-17.75,0-17.75C363.22,26.67,359.36,29.93,359.36,35.52Z"/><path class="cls-2" d="M140.85,77.45a9.88,9.88,0,0,0-7.25-2.61c-3.44,0-5.34,1.07-5.34,2.91s1.72,3,5.46,3.2c5.52.36,12.53,1.61,12.53,9.38,0,5.17-4.22,9.62-12.59,9.62-4.63,0-9.26-.77-13.54-5.22l3.57-5.17c2.07,2.32,6.82,4,10.09,4.1,2.73.06,5.28-1.37,5.28-3.5s-1.66-2.85-5.81-3.09c-5.53-.42-12.12-2.44-12.12-9.09s7-9.14,12.35-9.14c4.57,0,8,.89,11.4,3.86Z"/><path class="cls-2" d="M161.09,61.42v8.31h8.08V76H161V88.61c0,2.79,1.54,4.16,3.8,4.16a8.36,8.36,0,0,0,3.5-.89l2,6.17a16.23,16.23,0,0,1-6,1.25c-6.35.24-10.51-3.38-10.51-10.69V76h-5.46V69.73h5.46V62.19Z"/><path class="cls-2" d="M203.67,84.34c0,8.43-5.76,15.26-15.26,15.26s-15.2-6.83-15.2-15.26S179,69.08,188.35,69.08,203.67,76,203.67,84.34Zm-23.22,0c0,4.45,2.67,8.61,8,8.61s8-4.16,8-8.61-3.08-8.67-8-8.67C183.18,75.67,180.45,79.94,180.45,84.34Z"/><path class="cls-2" d="M215.37,69.67l.53,3.39c2.26-3.63,5.29-4.16,8.25-4.16a11.11,11.11,0,0,1,7.54,2.79L228.43,78a7.28,7.28,0,0,0-5.23-1.9c-3.8,0-7.3,2-7.3,7.43V98.94h-7.24V69.67Z"/><path class="cls-2" d="M242.32,61.42c0,5.64-8.55,5.64-8.55,0S242.32,55.78,242.32,61.42Zm-7.89,8.13V98.94h7.24V69.55Z"/><path class="cls-2" d="M254.38,86.89c.47,3.62,3.62,6.24,8.73,6.24,2.67,0,6.17-1,7.83-2.74L275.57,95c-3.08,3.2-8.13,4.75-12.58,4.75-10.1,0-16.09-6.24-16.09-15.62,0-8.91,6-15.32,15.55-15.32,9.8,0,15.92,6.06,14.79,18.11Zm15.91-6c-.47-3.8-3.44-5.7-7.6-5.7-3.92,0-7.12,1.9-8.19,5.7Z"/><path class="cls-2" d="M301.94,77.45a9.86,9.86,0,0,0-7.24-2.61c-3.45,0-5.35,1.07-5.35,2.91s1.72,3,5.46,3.2c5.53.36,12.53,1.61,12.53,9.38,0,5.17-4.21,9.62-12.59,9.62-4.63,0-9.26-.77-13.53-5.22l3.56-5.17c2.08,2.32,6.83,4,10.09,4.1,2.73.06,5.29-1.37,5.29-3.5s-1.66-2.85-5.82-3.09c-5.52-.42-12.11-2.44-12.11-9.09s7-9.14,12.35-9.14c4.57,0,8,.89,11.4,3.86Z"/></g></g></svg>