<svg xmlns="http://www.w3.org/2000/svg" viewBox="0 0 92.3 92.3"><defs><style>.cls-1{fill:#606060;}.cls-2{fill:#fff;}.cls-3{fill:none;stroke:#fff;stroke-miterlimit:10;stroke-width:3px;}</style></defs><title>schrijfstijl_1</title><g id="Layer_2" data-name="Layer 2"><g id="Layer_2-2" data-name="Layer 2"><circle class="cls-1" cx="46.15" cy="46.15" r="46.15"/><rect class="cls-2" x="56.21" y="14.42" width="8.19" height="56.8" transform="translate(21.26 -20) rotate(22.76)"/><polygon class="cls-2" points="48.98 69.73 52.78 71.33 49.34 74.22 45.89 77.11 45.54 72.63 45.18 68.14 48.98 69.73"/><rect class="cls-2" x="62.37" y="14.17" width="2.4" height="18.4" rx="1.2" ry="1.2" transform="translate(13.99 -22.78) rotate(22.76)"/><path class="cls-3" d="M41.5,77.17c-8.76-3.36-18.23-8.16-18-13.69.26-6.42,13.38-7.86,15-16,1.48-7.43-7.36-17.24-18-18.25a21.73,21.73,0,0,0-9,1.14"/></g></g></svg>