<svg xmlns="http://www.w3.org/2000/svg" viewBox="0 0 383.88 108.38"><defs><style>.cls-1,.cls-4{fill:#fff;}.cls-1{stroke:#fff;stroke-miterlimit:10;}.cls-2{fill:#02d768;}.cls-3{fill:#f8fdfa;}</style></defs><title>Asset 1</title><g id="Layer_2" data-name="Layer 2"><g id="Layer_2-2" data-name="Layer 2"><circle class="cls-1" cx="54.19" cy="54.19" r="53.69"/><path class="cls-2" d="M54,106.87c-29.41-.06-52.54-23.41-52.48-53A52.33,52.33,0,0,1,54.31,1.51,52.68,52.68,0,1,1,54,106.87Zm-6.26-50.4c0-2.95.15-5.35,0-7.73s.22-3.49,3.11-3.28c4.66.33,9.36.14,14,.07,3.58-.05,5-1.58,5.07-5.19C70,36.5,68.6,35,65,34.67c-2.74-.21-6.33,1.24-8-.62s-.38-5.33-.46-8.1c-.12-4-1.47-5.31-5.5-5.34-4.41,0-5.83,1.17-5.87,5.18,0,4.78-.08,9.56,0,14.34,0,1.73-.47,2.11-2.17,2.07-5.17-.14-10.35-.12-15.53,0-3.23.06-4.66,1.8-4.66,5.28s1.42,5.27,4.55,5.44a55.39,55.39,0,0,0,6.57,0c1.8-.11,2.47.45,2.39,2.33-.14,3.28-.1,6.57,0,9.85C36.57,75.8,43.07,84,53.13,86.25c14,3.2,26-4.73,28.4-18.8.38-2.2.33-4.23-2.12-5.28-4.73-2-8.67-.05-9.83,5-1.31,5.61-5.45,8.77-11.26,8.59C52.83,75.55,49,72,48,66.34,47.46,62.88,47.92,59.38,47.75,56.47Z"/><path class="cls-3" d="M47.75,56.47c.17,2.91-.29,6.41.29,9.87C49,72,52.83,75.55,58.32,75.72c5.81.18,9.95-3,11.26-8.59,1.16-5,5.1-7,9.83-5,2.45,1,2.5,3.08,2.12,5.28-2.4,14.07-14.38,22-28.4,18.8C43.07,84,36.57,75.8,36.31,65.07c-.08-3.28-.12-6.57,0-9.85.08-1.88-.59-2.44-2.39-2.33a55.39,55.39,0,0,1-6.57,0c-3.13-.17-4.56-2-4.55-5.44s1.43-5.22,4.66-5.28c5.18-.1,10.36-.12,15.53,0,1.7,0,2.21-.34,2.17-2.07-.11-4.78-.07-9.56,0-14.34,0-4,1.46-5.22,5.87-5.18,4,0,5.38,1.38,5.5,5.34.08,2.77-1.15,6.3.46,8.1s5.26.41,8,.62c3.62.28,5,1.83,4.94,5.67-.06,3.61-1.49,5.14-5.07,5.19-4.67.07-9.37.26-14-.07-2.89-.21-3.29.87-3.11,3.28S47.75,53.52,47.75,56.47Z"/><path class="cls-4" d="M131.94,12.66V21H140V27.2h-8.13V39.85c0,2.79,1.54,4.16,3.8,4.16a8.32,8.32,0,0,0,3.5-.89l2,6.17a16.22,16.22,0,0,1-6,1.25c-6.36.23-10.51-3.39-10.51-10.69V27.2h-5.47V21h5.47V13.43Z"/><path class="cls-4" d="M152.13,20.91l.53,3.38c2.26-3.62,5.29-4.15,8.26-4.15a11.1,11.1,0,0,1,7.54,2.79l-3.27,6.29a7.21,7.21,0,0,0-5.22-1.9c-3.8,0-7.31,2-7.31,7.42V50.18h-7.24V20.91Z"/><path class="cls-4" d="M194.4,20.91h6.95V50.18h-6.83l-.35-4.27c-1.67,3.44-6.24,5.1-9.5,5.16-8.67.06-15.08-5.28-15.08-15.55,0-10.1,6.7-15.38,15.25-15.32,3.92,0,7.66,1.84,9.33,4.75ZM176.83,35.52c0,5.58,3.86,8.9,8.67,8.9,11.4,0,11.4-17.75,0-17.75C180.69,26.67,176.83,29.93,176.83,35.52Z"/><path class="cls-4" d="M229,50.18V34.86C229,30.41,226.59,27,222,27c-4.46,0-7.48,3.75-7.48,8.2v15h-7.19V20.85h6.47l.48,4c3-2.91,5.94-4.4,9.62-4.4,6.88,0,12.41,5.17,12.41,14.37V50.18Z"/><path class="cls-4" d="M261.62,28.69a9.86,9.86,0,0,0-7.24-2.61c-3.45,0-5.35,1.06-5.35,2.9s1.73,3,5.47,3.21c5.52.36,12.52,1.6,12.52,9.38,0,5.17-4.21,9.62-12.58,9.62-4.63,0-9.27-.77-13.54-5.22l3.56-5.17c2.08,2.32,6.83,4,10.1,4.1,2.73.06,5.28-1.37,5.28-3.51s-1.66-2.85-5.82-3.08c-5.52-.42-12.11-2.44-12.11-9.09s7-9.14,12.35-9.14c4.57,0,8,.89,11.4,3.86Z"/><path class="cls-4" d="M294.87,20.91h6.95V50.18H295l-.35-4.27c-1.67,3.44-6.24,5.1-9.5,5.16-8.67.06-15.08-5.28-15.08-15.55,0-10.1,6.7-15.38,15.25-15.32,3.92,0,7.66,1.84,9.33,4.75ZM277.3,35.52c0,5.58,3.86,8.9,8.67,8.9,11.4,0,11.4-17.75,0-17.75C281.16,26.67,277.3,29.93,277.3,35.52Z"/><path class="cls-4" d="M336.44,20.85,324,50.3h-7.84L303.6,20.85h7.9l4,9.68,4.51,12.35,4.45-12.23,4-9.8Z"/><path class="cls-4" d="M347.84,12.66c0,5.64-8.55,5.64-8.55,0S347.84,7,347.84,12.66Zm-7.9,8.13V50.18h7.25V20.79Z"/><path class="cls-4" d="M376.93,20.91h6.95V50.18h-6.83l-.35-4.27c-1.67,3.44-6.24,5.1-9.5,5.16-8.67.06-15.08-5.28-15.08-15.55,0-10.1,6.71-15.38,15.26-15.32,3.91,0,7.65,1.84,9.32,4.75ZM359.36,35.52c0,5.58,3.86,8.9,8.67,8.9,11.4,0,11.4-17.75,0-17.75C363.22,26.67,359.36,29.93,359.36,35.52Z"/><path class="cls-4" d="M140.85,77.45a9.88,9.88,0,0,0-7.25-2.61c-3.44,0-5.34,1.07-5.34,2.91s1.72,3,5.46,3.2c5.52.36,12.53,1.61,12.53,9.38,0,5.17-4.22,9.62-12.59,9.62-4.63,0-9.26-.77-13.54-5.22l3.57-5.17c2.07,2.32,6.82,4,10.09,4.1,2.73.06,5.28-1.37,5.28-3.5s-1.66-2.85-5.81-3.09c-5.53-.42-12.12-2.44-12.12-9.09s7-9.14,12.35-9.14c4.57,0,8,.89,11.4,3.86Z"/><path class="cls-4" d="M161.09,61.42v8.31h8.08V76H161V88.61c0,2.79,1.54,4.16,3.8,4.16a8.36,8.36,0,0,0,3.5-.89l2,6.17a16.23,16.23,0,0,1-6,1.25c-6.35.24-10.51-3.38-10.51-10.69V76h-5.46V69.73h5.46V62.19Z"/><path class="cls-4" d="M203.67,84.34c0,8.43-5.76,15.26-15.26,15.26s-15.2-6.83-15.2-15.26S179,69.08,188.35,69.08,203.67,76,203.67,84.34Zm-23.22,0c0,4.45,2.67,8.61,8,8.61s8-4.16,8-8.61-3.08-8.67-8-8.67C183.18,75.67,180.45,79.94,180.45,84.34Z"/><path class="cls-4" d="M215.37,69.67l.53,3.39c2.26-3.63,5.29-4.16,8.25-4.16a11.11,11.11,0,0,1,7.54,2.79L228.43,78a7.28,7.28,0,0,0-5.23-1.9c-3.8,0-7.3,2-7.3,7.43V98.94h-7.24V69.67Z"/><path class="cls-4" d="M242.32,61.42c0,5.64-8.55,5.64-8.55,0S242.32,55.78,242.32,61.42Zm-7.89,8.13V98.94h7.24V69.55Z"/><path class="cls-4" d="M254.38,86.89c.47,3.62,3.62,6.24,8.73,6.24,2.67,0,6.17-1,7.83-2.74L275.57,95c-3.08,3.2-8.13,4.75-12.58,4.75-10.1,0-16.09-6.24-16.09-15.62,0-8.91,6-15.32,15.55-15.32,9.8,0,15.92,6.06,14.79,18.11Zm15.91-6c-.47-3.8-3.44-5.7-7.6-5.7-3.92,0-7.12,1.9-8.19,5.7Z"/><path class="cls-4" d="M301.94,77.45a9.86,9.86,0,0,0-7.24-2.61c-3.45,0-5.35,1.07-5.35,2.91s1.72,3,5.46,3.2c5.53.36,12.53,1.61,12.53,9.38,0,5.17-4.21,9.62-12.59,9.62-4.63,0-9.26-.77-13.53-5.22l3.56-5.17c2.08,2.32,6.83,4,10.09,4.1,2.73.06,5.29-1.37,5.29-3.5s-1.66-2.85-5.82-3.09c-5.52-.42-12.11-2.44-12.11-9.09s7-9.14,12.35-9.14c4.57,0,8,.89,11.4,3.86Z"/></g></g></svg>